<?xml version="1.0" encoding="utf-8"?>
<!-- Generator: Adobe Illustrator 23.0.2, SVG Export Plug-In . SVG Version: 6.00 Build 0)  -->
<svg version="1.1" id="图层_1" xmlns="http://www.w3.org/2000/svg" xmlns:xlink="http://www.w3.org/1999/xlink" x="0px" y="0px"
	 viewBox="0 0 881 105" style="enable-background:new 0 0 881 105;" xml:space="preserve">
<style type="text/css">
	.st0{fill:none;stroke:#FDECBD;stroke-width:6;stroke-linecap:round;stroke-linejoin:round;}
	.st1{fill:none;stroke:#FDECBD;stroke-width:6;stroke-linecap:round;stroke-linejoin:round;stroke-dasharray:11.994,11.994;}
	.st2{opacity:0.67;fill:none;stroke:#00ECBD;stroke-width:10;stroke-linecap:round;stroke-linejoin:round;stroke-miterlimit:10;}
	.st3{fill:#FF9966;}
	.st4{fill:none;stroke:#FFECBD;stroke-width:5;stroke-linecap:round;stroke-linejoin:round;}
	.st5{fill:none;stroke:#FFECBD;stroke-width:5;stroke-linecap:round;stroke-linejoin:round;stroke-dasharray:11.9317,11.9317;}
	.st6{fill:none;stroke:#00ECBD;stroke-width:10;stroke-linecap:round;stroke-linejoin:round;}
	.st7{fill:#00ECBD;}
</style>
<g>
	<g>
		<line class="st0" x1="147.5" y1="68.4" x2="153.5" y2="68.4"/>
		<line class="st1" x1="165.5" y1="68.4" x2="759.2" y2="68.4"/>
		<line class="st0" x1="765.2" y1="68.4" x2="771.2" y2="68.4"/>
	</g>
</g>
<path class="st2" d="M101.8,91l0.2-0.9l0-0.1l0.2-0.9l0-0.1l0.2-0.8l0-0.1l0.2-0.9l0-0.1l0.2-0.8l0-0.1l0.2-0.9l0-0.1l0.2-0.8l0-0.1
	l0.2-0.9l0-0.1l0.2-0.8l0-0.1l0.2-0.9l0-0.1l0.2-0.8l0-0.1l0.2-0.9l0-0.1l0.2-0.8l0-0.1l0.2-0.9l0-0.1l0.2-0.8l0-0.1l0.2-0.9l0-0.1
	l0.2-0.8l0-0.1l0.2-0.9l0-0.1l0.2-0.8l0-0.1l0.2-0.8l0-0.1l0.2-0.8l0-0.1l0.2-0.8l0-0.1l0.2-0.8l0-0.1l0.2-0.8l0-0.1l0.2-0.8l0-0.1
	l0.2-0.7l0-0.1l0.2-0.8l0-0.1l0.2-0.7l0-0.1l0.2-0.8l0-0.1l0.2-0.7l0-0.1l0.2-0.8l0-0.1l0.2-0.7l0-0.1l0.2-0.8l0-0.1l0.2-0.7l0-0.1
	l0.2-0.8l0-0.1l0.2-0.7l0-0.1l0.2-0.7l0-0.1l0.2-0.7l0-0.1l0.2-0.7l0-0.1l0.2-0.7l0-0.1l0.2-0.7l0-0.1l0.2-0.6l0-0.1l0.2-0.7l0-0.1
	l0.2-0.6l0-0.1l0.2-0.7l0-0.1l0.2-0.6l0-0.1L112,51l0-0.1l0.2-0.6l0-0.1l0.2-0.7l0-0.1l0.2-0.6l0-0.1l0.2-0.6l0-0.1l0.2-0.6l0-0.1
	l0.2-0.6l0-0.1l0.2-0.6l0-0.1l0.2-0.5l0-0.1L114,45l0-0.1l0.2-0.5l0-0.1l0.2-0.6l0-0.1l0.2-0.5l0-0.1l0.2-0.6l0-0.1l0.2-0.5l0,0
	l0.2-0.5l0,0l0.2-0.5l0,0l0.2-0.5l0,0l0.2-0.5l0,0l0.2-0.5l0,0l0.2-0.5l0,0l0.2-0.5l0,0l0.2-0.4l0,0l0.2-0.5l0,0l0.2-0.4l0,0
	l0.2-0.5l0,0l0.2-0.4l0,0l0.2-0.4l0,0l0.2-0.4l0,0l0.2-0.4l0,0l0.2-0.4l0,0l0.2-0.4l0,0l0.2-0.4l0,0l0.2-0.4l0,0l0.2-0.4l0,0
	l0.2-0.3l0,0l0.2-0.4l0,0l0.2-0.3l0,0l0.2-0.3l0,0l0.2-0.3l0,0l0.2-0.3l0,0l0.2-0.3l0,0l0.2-0.3l0,0l0.2-0.3l0,0l0.2-0.3l0,0
	l0.2-0.3l0,0l0.2-0.3l0,0l0.2-0.3l0,0l0.2-0.3l0,0l0.2-0.2l0,0l0.2-0.3l0,0l0.2-0.3l0,0l0.2-0.2l0,0l0.2-0.2l0,0l0.2-0.2l0,0L124,26
	l0,0l0.2-0.2l0,0l0.2-0.2l0,0l0.2-0.2l0,0l0.2-0.2l0,0l0.2-0.2l0,0l0.2-0.2l0,0l0.2-0.2l0,0l0.2-0.2l0,0l0.2-0.2l0,0l0.2-0.2l0,0
	l0.2-0.2l0,0l0.2-0.2l0,0l0.2-0.1l0,0l0.2-0.2l0,0l0.2-0.1l0,0l0.2-0.1l0,0l0.2-0.1l0,0l0.2-0.1l0,0l0.2-0.1l0,0l0.2-0.1l0,0
	l0.2-0.1l0,0l0.2-0.1l0,0L129,22l0,0l0.2-0.1l0,0l0.2-0.1l0,0l0.2-0.1l0,0l0.2-0.1l0,0l0.2-0.1l0,0l0.2-0.1l0,0l0.2-0.1l0,0l0.2-0.1
	l0,0l0.2-0.1l0,0l0.2-0.1l0,0l0.2-0.1l0,0l0.2-0.1l0,0l0.2-0.1l0,0l0.2-0.1l0,0l0.2-0.1l0,0l0.2-0.1l0,0l0.2-0.1l0,0l0.2-0.1l0,0
	l0.2-0.1l0,0l0.2-0.1l0,0l0.2-0.1l0,0l0.2,0l0,0l0.2,0l0,0l0.2,0l0,0l0.2,0l0,0l0.2,0l0,0l0.2,0l0,0l0.2,0l0,0l0.2,0l0,0l0.2,0l0,0
	l0.2,0l0,0l0.2,0l0,0l0.2,0l0,0l0.2,0l0,0l0.2,0l0,0l0.2,0l0,0l0.2,0l0,0l0.2,0l0,0l0.2,0l0,0l0.2,0l0,0l0.2,0l0,0l0.2,0l0,0l0.2,0
	l0,0l0.2,0l0,0l0.2,0l0,0l0.2,0l0,0l0.2,0l0,0l0.2,0l0,0l0.2,0l0,0l0.2,0l0,0l0.2,0l0,0l0.2,0l0,0l0.2,0l0,0l0.2,0l0,0l0.2,0l0,0
	l0.2,0l0,0l0.2,0l0,0l0.2,0l0,0l0.2,0l0,0l0.2,0l0,0l0.2,0l0,0l0.2,0l0,0l0.2,0l0,0l0.2,0l0,0l0.2,0l0,0l0.2,0l0,0l0.2,0l0,0l0.2,0
	l0,0l0.2,0l0,0l0.2,0l0,0l0.2,0l0,0l0.2,0l0,0l0.2,0l0,0l0.2,0l0,0l0.2,0l0,0l0.2,0l0,0l0.2,0l0,0l0.2,0l0,0l0.2,0l0,0l0.2,0l0,0
	l0.2,0l0,0l0.2,0l0,0l0.2,0l0,0l0.2,0l0,0l0.2,0l0,0l0.2,0l0,0l0.2,0l0,0l0.2,0l0,0l0.2,0l0,0l0.2,0l0,0l0.2,0l0,0l0.2,0l0,0l0.2,0
	l0,0l0.2,0l0,0l0.2,0l0,0l0.2,0l0,0l0.2,0l0,0l0.2,0l0,0l0.2,0l0,0l0.2,0l0,0l0.2,0l0,0l0.2,0l0,0l0.2,0l0,0l0.2,0l0,0l0.2,0l0,0
	l0.2,0l0,0l0.2,0l0,0l0.2,0l0,0l0.2,0l0,0l0.2,0l0,0l0.2,0l0,0l0.2,0l0,0l0.2,0l0,0l0.2,0l0,0l0.2,0l0,0l0.2,0l0,0l0.2,0l0,0l0.2,0
	l0,0l0.2,0l0,0l0.2,0l0,0l0.2,0l0,0l0.2,0l0,0l0.2,0l0,0l0.2,0l0,0l0.2,0l0,0l0.2,0l0,0l0.2,0l0,0l0.2,0l0,0l0.2,0l0,0l0.2,0l0,0
	l0.2,0l0,0l0.2,0l0,0l0.2,0h0l0.2,0h0l0.2,0l0,0l0.2,0h0l0.2,0h0l0.2,0h0l0.2,0l0,0l0.2,0h0l0.2,0l0,0l0.2,0h0l0.2,0h0l0.2,0h0
	l0.2,0h0l0.2,0l0,0l0.2,0h0l0.2,0l0,0l0.2,0h0l0.2,0h0l0.2,0h0l0.2,0h0l0.2,0l0,0l0.2,0h0l0.2,0h0l0.2,0h0l0.2,0h0l0.2,0h0l0.2,0h0
	l0.2,0l0,0l0.2,0h0l0.2,0h0l0.2,0h0l0.2,0h0l0.2,0h0l0.2,0h0l0.2,0h0l0.2,0h0h0.2h0l0.2,0h0l0.2,0h0h0.2h0l0.2,0h0h0.2h0l0.2,0h0
	h0.2h0h0.2l0,0h0.2h0h0.2h0l0.2,0h0h0.2h0h0.2h0h0.2h0l0.2,0h0h0.2h0h0.2h0h0.2h0h0.2h0h0.2h0h0.2h0l0.2,0h0h0.2h0h0.2h0h0.2h0h0.2
	h0h0.2h0h0.2h0h0.2h0h0.2h0h0.2h0h0.2h0h0.2h0h0.2h0l0.2,0h0h0.2h0h0.2h0h0.2h0h0.2h0h0.2h0h0.2h0h0.2h0h0.2h0h0.2h0h0.2h0h0.2h0
	h0.2h0h0.2h0h0.2h0h0.2h0h0.2h0h0.2h0h0.2h0h0.2h0h0.2h0h0.2h0h0.2h0h0.2h0h0.2h0h0.2h0h0.2h0h0.2h0h0.2h0h0.2h0h0.2h0h0.2h0h0.2h0
	h0.2h0h0.2h0h0.2h0h0.2h0h0.2h0h0.2h0h0.2h0h0.2h0h0.2h0h0.2h0h0.2h0h0.2h0h0.2h0h0.2h0h0.2h0h0.2h0h0.2h0h0.2h0h0.2h0h0.2h0h0.2h0
	h0.2h0h0.2h0h0.2h0h0.2h0h0.2h0h0.2h0h0.2h0h0.2h0h0.2h0h0.2h0h0.2h0h0.2h0h0.2h0h0.2h0h0.2h0h0.2h0h0.2h0h0.2h0h0.2h0h0.2h0h0.2h0
	h0.2h0h0.2h0h0.2h0h0.2h0h0.2h0h0.2h0h0.2h0h0.2h0h0.2h0h0.2h0h0.2h0h0.2h0h0.2h0h0.2h0h0.2h0h0.2h0h0.2h0h0.2h0h0.2h0h0.2h0h0.2h0
	h0.2h0h0.2h0h0.2h0h0.2h0h0.2h0h0.2h0h0.2h0h0.2h0h0.2h0h0.2h0h0.2h0h0.2h0h0.2h0h0.2h0h0.2h0h0.2h0h0.2h0h0.2h0h0.2h0h0.2h0h0.2h0
	h0.2h0h0.2h0h0.2h0h0.2h0h0.2h0h0.2h0h0.2h0h0.2h0h0.2h0h0.2h0h0.2h0h0.2h0h0.2h0h0.2h0h0.2h0h0.2h0h0.2h0h0.2h0h0.2h0h0.2h0h0.2h0
	h0.2h0h0.2h0h0.2h0h0.2h0h0.2h0h0h0.2h0h0.2h0h0h0.2h0h0.2h0h0h0.2h0h0.2h0h0.2h0h0.2h0h0.2h0h0h0.2h0h0h0.1h0.1h0h0.2h0h0.2h0h0.1
	h0.1h0h0.2h0.1h0h0.1h0.1h0h0.1h0.2h0h0h0.2h0h0h0.2h0h0h0.2h0h0.1h0.1h0h0.2h0h0h0.2h0h0.2h0h0h0.2h0h0.2h0h0.2h0h0h0.2h0h0.2h0
	h0.2h0h0.2h0h0.1h0.1h0h0.2h0h0.2h0h0.2h0h0.2h0h0.2h0h0.2h0h0.2h0h0.2h0h0.2h0h0.2h0h0.2h0h0.2h0h0.2h0h0.2h0h0.2h0h0.2h0h0.2h0
	h0.2h0h0.2h0h0.2h0h0.2h0h0.2h0h0.2h0h0.2h0h0.2h0h0.2h0h0.2h0h0.2h0h0.2h0h0.2h0h0.2h0h0.2h0h0.2h0h0.2h0h0.2h0h0.2h0h0.2h0h0.2h0
	h0.2h0h0.2h0h0.2h0h0.2h0h0.2h0h0.2h0h0.2h0h0.2h0h0.2h0h0.2h0h0.2h0h0.2h0h0.2h0h0.2h0h0.2h0h0.2h0h0.2h0h0.2h0h0.2h0h0.2h0h0.2h0
	h0.2h0h0.2h0h0.2h0h0.2h0h0.2h0h0.2h0h0.2h0h0.2h0h0.2h0h0.2h0h0.2h0h0.2h0h0.2h0h0.2h0h0.2h0h0.2h0h0.2h0h0.2h0h0.2h0h0.2h0h0.2h0
	h0.2h0h0.2h0h0.2h0h0.2h0h0.2h0h0.2h0h0.2h0h0.2h0h0.2h0h0.2h0h0.2h0h0.2h0h0.2h0h0.2h0h0.2h0h0.2h0h0.2h0h0.2h0h0.2h0h0.2h0h0.2h0
	h0.2h0h0.2h0h0.2h0h0.2h0h0.2h0h0.2h0h0.2h0h0.2h0h0.2h0h0.2h0h0.2h0h0.2h0h0.2h0h0.2h0h0.2h0h0.2h0h0.2h0h0.2h0h0.2h0h0.2h0h0.2h0
	h0.2h0h0.2h0h0.2h0h0.2h0h0.2h0h0.2h0h0.2h0h0.2h0h0.2h0h0.2h0h0.2h0h0.2h0h0.2h0h0.2h0h0.2h0h0.2h0h0.2h0h0.2h0h0.2h0h0.2h0h0.2h0
	h0.2h0h0.2h0h0.2h0h0.2h0h0.2h0h0.2h0h0.2h0h0.2h0h0.2h0h0.2h0h0.2h0h0.2h0h0.2h0h0.2h0h0.2h0h0.2h0h0.2h0h0.2h0h0.2h0h0.2h0h0.2h0
	h0.2h0h0.2h0h0.2h0h0.2h0h0.2h0h0.2h0h0.2h0h0.2h0h0.2h0h0.2h0h0.2h0h0.2h0h0.2h0h0.2h0h0.2h0h0.2h0h0.2h0h0.2h0h0.2h0h0.2h0h0.2h0
	h0.2h0h0.2h0h0.2h0h0.2h0h0.2h0h0.2h0h0.2h0h0.2h0h0.2h0h0.2h0h0.2h0h0.2h0h0.2h0h0.2h0h0.2h0h0.2h0h0.2h0h0.2h0h0.2h0h0.2h0h0.2h0
	h0.2h0h0.2h0h0.2h0h0.2h0h0.2h0h0.2h0h0.2h0h0.2h0h0.2h0h0.2h0h0.2h0h0.2h0h0.2h0h0.2h0h0.2h0h0.2h0h0.2h0h0.2h0h0.2h0h0.2h0h0.2h0
	h0.2h0h0.2h0h0.2h0h0.2h0h0.2h0h0.2h0h0.2h0h0.2h0h0.2h0h0.2h0h0.2h0h0.2h0h0.2h0h0.2h0h0.2h0h0.2h0h0.2h0h0.2h0h0.2h0h0.2h0h0.2h0
	h0.2h0h0.2h0h0.2h0h0.2h0h0.2h0h0.2h0h0.2h0h0.2h0h0.2h0h0.2h0h0.2h0h0.2h0h0.2h0h0.2h0h0.2h0h0.2h0h0.2h0h0.2h0h0.2h0h0.2h0h0.2h0
	h0.2h0h0.2h0h0.2h0h0.2h0h0.2h0h0.2h0h0.2h0h0.2h0h0.2h0h0.2h0h0.2h0h0.2h0h0.2h0h0.2h0h0.2h0h0.2h0h0.2h0h0.2h0h0.2h0h0.2h0h0.2h0
	h0.2h0h0.2h0h0.2h0h0.2h0h0.2h0h0.2h0h0.2h0h0.2h0h0.2h0h0.2h0h0.2h0h0.2h0h0.2h0h0.2h0h0.2h0h0.2h0h0.2h0h0.2h0h0.2h0h0.2h0h0.2h0
	h0.2h0h0.2h0h0.2h0h0.2h0h0.2h0h0.2h0h0.2h0h0.2h0h0.2h0h0.2h0h0.2h0h0.2h0h0.2h0h0.2h0h0.2h0h0.2h0h0.2h0h0.2h0h0.2h0h0.2h0h0.2h0
	h0.2h0h0.2h0h0.2h0h0.2h0h0.2h0h0.2h0h0.2h0h0.2h0h0.2h0h0.2h0h0.2h0h0.2h0h0.2h0h0.2h0h0.2h0h0.2h0h0.2h0h0.2h0h0.2h0h0.2h0h0.2h0
	h0.2h0h0.2h0h0.2h0h0.2h0h0.2h0h0.2h0h0.2h0h0.2h0h0.2h0h0.2h0h0.2h0h0.2h0h0.2h0h0.2h0h0.2h0h0.2h0h0.2h0h0.2h0h0.2h0h0.2h0h0.2h0
	h0.2h0h0.2h0h0.2h0h0.2h0h0.2h0h0.2h0h0.2h0h0.2h0h0.2h0h0.2h0h0.2h0h0.2h0h0.2h0h0.2h0h0.2h0h0.2h0h0.2h0h0.2h0h0.2h0h0.2h0h0.2h0
	h0.2h0h0.2h0h0.2h0h0.2h0h0.2h0h0.2h0h0.2h0h0.2h0h0.2h0h0.2h0h0.2h0h0.2h0h0.2h0h0.2h0h0.2h0h0.2h0h0.2h0h0.2h0h0.2h0h0.2h0h0.2h0
	h0.2h0h0.2h0h0.2h0h0.2h0h0.2h0h0.2h0h0.2h0h0.2h0h0.2h0h0.2h0h0.2h0h0.2h0h0.2h0h0.2h0h0.2h0h0.2h0h0.2h0h0.2h0h0.2h0h0.2h0h0.2h0
	h0.2h0h0.2h0h0.2h0h0.2h0h0.2h0h0.2h0h0.2h0h0.2h0h0.2h0h0.2h0h0.2h0h0.2h0h0.2h0h0.2h0h0.2h0h0.2h0h0.2h0h0.2h0h0.2h0h0.2h0h0.2h0
	h0.2h0h0.2h0h0.2h0h0.2h0h0.2h0h0.2h0h0.2h0h0.2h0h0.2h0h0.2h0h0.2h0h0.2h0h0.2h0h0.2h0h0.2h0h0.2h0h0.2h0h0.2h0h0.2h0h0.2h0h0.2h0
	h0.2h0h0.2h0h0.2h0h0.2h0h0.2h0h0.2h0h0.2h0h0.2h0h0.2h0h0.2h0h0.2h0h0.2h0h0.2h0h0.2h0h0.2h0h0.2h0h0.2h0h0.2h0h0.2h0h0.2h0h0.2h0
	h0.2h0h0.2h0h0.2h0h0.2h0h0.2h0h0.2h0h0.2h0h0.2h0h0.2h0h0.2h0h0.2h0h0.2h0h0.2h0h0.2h0h0.2h0h0.2h0h0.2h0h0.2h0h0.2h0h0.2h0h0.2h0
	h0.2h0h0.2h0h0.2h0h0.2h0h0.2h0h0.2h0h0.2h0h0.2h0h0.2h0h0.2h0h0.2h0h0.2h0h0.2h0h0.2h0h0.2h0h0.2h0h0.2h0h0.2h0h0.2h0h0.2h0h0.2h0
	h0.2h0h0.2h0h0.2h0h0.2h0h0.2h0h0.2h0h0.2h0h0.2h0h0.2h0h0.2h0h0.2h0h0.2h0h0.2h0h0.2h0h0.2h0h0.2h0h0.2h0h0.2h0h0.2h0h0.2h0h0.2h0
	h0.2h0h0.2h0h0.2h0h0.2h0h0.2h0h0.2h0h0.2h0h0.2h0h0.2h0h0.2h0h0.2h0h0.2h0h0.2h0h0.2h0h0.2h0h0.2h0h0.2h0h0.2h0h0.2h0h0.2h0h0.2h0
	h0.2h0h0.2h0h0.2h0h0.2h0h0.2h0h0.2h0h0.2h0h0.2h0h0.2h0h0.2h0h0.2h0h0.2h0h0.2h0h0.2h0h0.2h0h0.2h0h0.2h0h0.2h0h0.2h0h0.2h0h0.2h0
	h0.2h0h0.2h0h0.2h0h0.2h0h0.2h0h0.2h0h0.2h0h0.2h0h0.2h0h0.2h0h0.2h0h0.2h0h0.2h0h0.2h0h0.2h0h0.2h0h0.2h0h0.2h0h0.2h0h0.2h0h0.2h0
	h0.2h0h0.2h0h0.2h0h0.2h0h0.2h0h0.2h0h0.2h0h0.2h0h0.2h0h0.2h0h0.2h0h0.2h0h0.2h0h0.2h0h0.2h0h0.2h0h0.2h0h0.2h0h0.2h0h0.2h0h0.2h0
	h0.2h0h0.2h0h0.2h0h0.2h0h0.2h0h0.2h0h0.2h0h0.2h0h0.2h0h0.2h0h0.2h0h0.2h0h0.2h0h0.2h0h0.2h0h0.2h0h0.2h0h0.2h0h0.2h0h0.2h0h0.2h0
	h0.2h0h0.2h0h0.2h0h0.2h0h0.2h0h0.2h0h0.2h0h0.2h0h0.2h0h0.2h0h0.2h0h0.2h0h0.2h0h0.2h0h0.2h0h0.2h0h0.2h0h0.2h0h0.2h0h0.2h0h0.2h0
	h0.2h0h0.2h0h0.2h0h0.2h0h0.2h0h0.2h0h0.2h0h0.2h0h0.2h0h0.2h0h0.2h0h0.2h0h0.2h0h0.2h0h0.2h0h0.2h0h0.2h0h0.2h0h0.2h0h0.2h0h0.2h0
	h0.2h0h0.2h0h0.2h0h0.2h0h0.2h0h0.2h0h0.2h0h0.2h0h0.2h0h0.2h0h0.2h0h0.2h0h0.2h0h0.2h0h0.2h0h0.2h0h0.2h0h0.2h0h0.2h0h0.2h0h0.2h0
	h0.2h0h0.2h0h0.2h0h0.2h0h0.2h0h0.2h0h0.2h0h0.2h0h0.2h0h0.2h0h0.2h0h0.2h0h0.2h0h0.2h0h0.2h0h0.2h0h0.2h0h0.2h0h0.2h0h0.2h0h0.2h0
	h0.2h0h0.2h0h0.2h0h0.2h0h0.2h0h0.2h0h0.2h0h0.2h0h0.2h0h0.2h0h0.2h0h0.2h0h0.2h0h0.2h0h0.2h0h0.2h0h0.2h0h0.2h0h0.2h0h0.2h0h0.2h0
	h0.2h0h0.2h0h0.2h0h0.2h0h0.2h0h0.2h0h0.2h0h0.2h0h0.2h0h0.2h0h0.2h0h0.2h0h0.2h0h0.2h0h0.2h0h0.2h0h0.2h0h0.2h0h0.2h0h0.2h0h0.2h0
	h0.2h0h0.2h0h0.2h0h0.2h0h0.2h0h0.2h0h0.2h0h0.2h0h0.2h0h0.2h0h0.2h0h0.2h0h0.2h0h0.2h0h0.2h0h0.2h0h0.2h0h0.2h0h0.2h0h0.2h0h0.2h0
	h0.2h0h0.2h0h0.2h0h0.2h0h0.2h0h0.2h0h0.2h0h0.2h0h0.2h0h0.2h0h0.2h0h0.2h0h0.2h0h0.2h0h0.2h0h0.2h0h0.2h0h0.2h0h0.2h0h0.2h0h0.2h0
	h0.2h0h0.2h0h0.2h0h0.2h0h0.2h0h0.2h0h0.2h0h0.2h0h0.2h0h0.2h0h0.2h0h0.2h0h0.2h0h0.2h0h0.2h0h0.2h0h0.2h0h0.2h0h0.2h0h0.2h0h0.2h0
	h0.2h0h0.2h0h0.2h0h0.2h0h0.2h0h0.2h0h0.2h0h0.2h0h0.2h0h0.2h0h0.2h0h0.2h0h0.2h0h0.2h0h0.2h0h0.2h0h0.2h0h0.2h0h0.2h0h0.2h0h0.2h0
	h0.2h0h0.2h0h0.2h0h0.2h0h0.2h0h0.2h0h0.2h0h0.2h0h0.2h0h0.2h0h0.2h0h0.2h0h0.2h0h0.2h0h0.2h0h0.2h0h0.2h0h0.2h0h0.2h0h0.2h0h0.2h0
	h0.2h0h0.2h0h0.2h0h0.2h0h0.2h0h0.2h0h0.2h0h0.2h0h0.2h0h0.2h0h0.2h0h0.2h0h0.2h0h0.2h0h0.2h0h0.2h0h0.2h0h0.2h0h0.2h0h0.2h0h0.2h0
	h0.2h0h0.2h0h0.2h0h0.2h0h0.2h0h0.2h0h0.2h0h0.2h0h0.2h0h0.2h0h0.2h0h0.2h0h0.2h0h0.2h0h0.2h0h0.2h0h0.2h0h0.2h0h0.2h0h0.2h0h0.2h0
	h0.2h0h0.2h0h0.2h0h0.2h0h0.2h0h0.2h0h0.2h0h0.2h0h0.2h0h0.2h0h0.2h0h0.2h0h0.2h0h0.2h0h0.2h0h0.2h0h0.2h0h0.2h0h0.2h0h0.2h0h0.2h0
	h0.2h0h0.2h0h0.2h0h0.2h0h0.2h0h0.2h0h0.2h0h0.2h0h0.2h0h0.2h0h0.2h0h0.2h0h0.2h0h0.2h0h0.2h0h0.2h0h0.2h0h0.2h0h0.2h0h0.2h0h0.2h0
	h0.2h0h0.2h0h0.2h0h0.2h0h0.2h0h0.2h0h0.2h0h0.2h0h0.2h0h0.2h0h0.2h0h0.2h0h0.2h0h0.2h0h0.2h0h0.2h0h0.2h0h0.2h0h0.2h0h0.2h0h0.2h0
	h0.2h0h0.2h0h0.2h0h0.2h0h0.2h0h0.2h0h0.2h0h0.2h0h0.2h0h0.2h0h0.2h0h0.2h0h0.2h0h0.2h0h0.2h0h0.2h0h0.2h0h0.2h0h0.2h0h0.2h0h0.2h0
	h0.2h0h0.2h0h0.2h0h0.2h0h0.2h0h0.2h0h0.2h0h0.2h0h0.2h0h0.2h0h0.2h0h0.2h0h0.2h0h0.2h0h0.2h0h0.2h0h0.2h0h0.2h0h0.2h0h0.2h0h0.2h0
	h0.2h0h0.2h0h0.2h0h0.2h0h0.2h0h0.2h0h0.2h0h0.2h0h0.2h0h0.2h0h0.2h0h0.2h0h0.2h0h0.2h0h0.2h0h0.2h0h0.2h0h0.2h0h0.2h0h0.2h0h0.2h0
	h0.2h0h0.2h0h0.2h0h0.2h0h0.2h0h0.2h0h0.2h0h0.2h0h0.2h0h0.2h0h0.2h0h0.2h0h0.2h0h0.2h0h0.2h0h0.2h0h0.2h0h0.2h0h0.2h0h0.2h0h0.2h0
	h0.2h0h0.2h0h0.2h0h0.2h0h0.2h0h0.2h0h0.2h0h0.2h0h0.2h0h0.2h0h0.2h0h0.2h0h0.2h0h0.2h0h0.2h0h0.2h0h0.2h0h0.2h0h0.2h0h0.2h0h0.2h0
	h0.2h0h0.2h0h0.2h0h0.2h0h0.2h0h0.2h0h0.2h0h0.2h0h0.2h0h0.2h0h0.2h0h0.2h0h0.2h0h0.2h0h0.2h0h0.2h0h0.2h0h0.2h0h0.2h0h0.2h0h0.2h0
	h0.2h0h0.2h0h0.2h0h0.2h0h0.2h0h0.2h0h0.2h0h0.2h0h0.2h0h0.2h0h0.2h0h0.2h0h0.2h0h0.2h0h0.2h0h0.2h0h0.2h0h0.2h0h0.2h0h0.2h0h0.2h0
	h0.2h0h0.2h0h0.2h0h0.2h0h0.2h0h0.2h0h0.2h0h0.2h0h0.2h0h0.2h0h0.2h0h0.2h0h0.2h0h0.2h0h0.2h0h0.2h0h0.2h0h0.2h0h0.2h0h0.2h0h0.2h0
	h0.2h0h0.2h0h0.2h0h0.2h0h0.2h0h0.2h0h0.2h0h0.2h0h0.2h0h0.2h0h0.2h0h0.2h0h0.2h0h0.2h0h0.2h0h0.2h0h0.2h0h0.2h0h0.2h0h0.2h0h0.2h0
	h0.2h0h0.2h0h0.2h0h0.2h0h0.2h0h0.2h0h0.2h0h0.2h0h0.2h0h0.2h0h0.2h0h0.2h0h0.2h0h0.2h0h0.2h0h0.2h0h0.2h0h0.2h0h0.2h0h0.2h0h0.2h0
	h0.2h0h0.2h0h0.2h0h0.2h0h0.2h0h0.2h0h0.2h0h0.2h0h0.2h0h0.2h0h0.2h0h0.2h0h0.2h0h0.2h0h0.2h0h0.2h0h0.2h0h0.2h0h0.2h0h0.2h0h0.2h0
	h0.2h0h0.2h0h0.2h0h0.2h0h0.2h0h0.2h0h0.2h0h0.2h0h0.2h0h0.2h0h0.2h0h0.2h0h0.2h0h0.2h0h0.2h0h0.2h0h0.2h0h0.2h0h0.2h0h0.2h0h0.2h0
	h0.2h0h0.2h0h0.2h0h0.2h0h0.2h0h0.2h0h0.2h0h0.2h0h0.2h0h0.2h0h0.2h0h0.2h0h0.2h0h0.2h0h0.2h0h0.2h0h0.2h0h0.2h0h0.2h0h0.2h0h0.2h0
	h0.2h0h0.2h0h0.2h0h0.2h0h0.2h0h0.2h0h0.2h0h0.2h0h0.2h0h0.2h0h0.2h0h0.2h0h0.2h0h0.2h0h0.2h0h0.2h0h0.2h0h0.2h0h0.2h0h0.2h0h0.2h0
	h0.2h0h0.2h0h0.2h0h0.2h0h0.2h0h0.2h0h0.2h0h0.2h0h0.2h0h0.2h0h0.2h0h0.2h0h0.2h0h0.2h0h0.2h0h0.2h0h0.2h0h0.2h0h0.2h0h0.2h0h0.2h0
	h0.2h0h0.2h0h0.2h0h0.2h0h0.2h0h0.2h0h0.2h0h0.2h0h0.2h0h0.2h0h0.2h0h0.2h0h0.2h0h0.2h0h0.2h0h0.2h0h0.2h0h0.2h0h0.2h0h0.2h0h0.2h0
	h0.2h0h0.2h0h0.2h0h0.2h0h0.2h0h0.2h0h0.2h0h0.2h0h0.2h0h0.2h0h0.2h0h0.2h0h0.2h0h0.2h0h0.2h0h0.2h0h0.2h0h0.2h0h0.2h0h0.2h0h0.2h0
	h0.2h0h0.2h0h0.2h0h0.2h0h0.2h0h0.2h0h0.2h0h0.2h0h0.2h0h0.2h0h0.2h0h0.2h0h0.2h0h0.2h0h0.2h0h0.2h0h0.2h0h0.2h0h0.2h0h0.2h0h0.2h0
	h0.2h0h0.2h0h0.2h0h0.2h0h0.2h0h0.2h0h0.2h0h0.2h0h0.2h0h0.2h0h0.2h0h0.2h0h0.2h0h0.2h0h0.2h0h0.2h0h0.2h0h0.2h0h0.2h0h0.2h0h0.2h0
	h0.2h0h0.2h0h0.2h0h0.2h0h0.2h0h0.2h0h0.2h0h0.2h0h0.2h0h0.2h0h0.2h0h0.2h0h0.2h0h0.2h0h0.2h0h0.2h0h0.2h0h0.2h0h0.2h0h0.2h0h0.2h0
	h0.2h0h0.2h0h0.2h0h0.2h0h0.2h0h0.2h0h0.2h0h0.2h0h0.2h0h0.2h0h0.2h0h0.2h0h0.2h0h0.2h0h0.2h0h0.2h0h0.2h0h0.2h0h0.2h0h0.2h0h0.2h0
	h0.2h0h0.2h0h0.2h0h0.2h0h0.2h0h0.2h0h0.2h0h0.2h0h0.2h0h0.2h0h0.2h0h0.2h0h0.2h0h0.2h0h0.2h0h0.2h0h0.2h0h0.2h0h0.2h0h0.2h0h0.2h0
	h0.2h0h0.2h0h0.2h0h0.2h0h0.2h0h0.2h0h0.2h0h0.2h0h0.2h0h0.2h0h0.2h0h0.2h0h0.2h0h0.2h0h0.2h0h0.2h0h0.2h0h0.2h0h0.2h0h0.2h0h0.2h0
	h0.2h0h0.2h0h0.2h0h0.2h0h0.2h0h0.2h0h0.2h0h0.2h0h0.2h0h0.2h0h0.2h0h0.2h0h0.2h0h0.2h0h0.2h0h0.2h0h0.2h0h0.2h0h0.2h0h0.2h0h0.2h0
	h0.2h0h0.2h0h0.2h0h0.2h0h0.2h0h0.2h0h0.2h0h0.2h0h0.2h0h0.2h0h0.2h0h0.2h0h0.2h0h0.2h0h0.2h0h0.2h0h0.2h0h0.2h0h0.2h0h0.2h0h0.2h0
	h0.2h0h0.2h0h0.2h0h0.2h0h0.2h0h0.2h0h0.2h0h0.2h0h0.2h0h0.2h0h0.2h0h0.2h0h0.2h0h0.2h0h0.2h0h0.2h0h0.2h0h0.2h0h0.2h0h0.2h0h0.2h0
	h0.2h0h0.2h0h0.2h0h0.2h0h0.2h0h0.2h0h0.2h0h0.2h0h0.2h0h0.2h0h0.2h0h0.2h0h0.2h0h0.2h0h0.2h0h0.2h0h0.2h0h0.2h0h0.2h0h0.2h0h0.2h0
	h0.2h0h0.2h0h0.2h0h0.2h0h0.2h0h0.2h0h0.2h0h0.2h0h0.2h0h0.2h0h0.2h0h0.2h0h0.2h0h0.2h0h0.2h0h0.2h0h0.2h0h0.2h0h0.2h0h0.2h0h0.2h0
	h0.2h0h0.2h0h0.2h0h0.2h0h0.2h0h0.2h0h0.2h0h0.2h0h0.2h0h0.2h0h0.2h0h0.2h0h0.2h0h0.2h0h0.2h0h0.2h0h0.2h0h0.2h0h0.2h0h0.2h0h0.2h0
	h0.2h0h0.2h0h0.2h0h0.2h0h0.2h0h0.2h0h0.2h0h0.2h0h0.2h0h0.2h0h0.2h0h0.2h0h0.2h0h0.2h0h0.2h0h0.2h0h0.2h0h0.2h0h0.2h0h0.2h0h0.2h0
	h0.2h0h0.2h0h0.2h0h0.2h0h0.2h0h0.2h0h0.2h0h0.2h0h0.2h0h0.2h0h0.2h0h0.2h0h0.2h0h0.2h0h0.2h0h0.2h0h0.2h0h0.2h0h0.2h0h0.2h0h0.2h0
	h0.2h0h0.2h0h0.2h0h0.2h0h0.2h0h0.2h0h0.2h0h0.2h0h0.2h0h0.2h0h0.2h0h0.2h0h0.2h0h0.2h0h0.2h0h0.2h0h0.2h0h0.2h0h0.2h0h0.2h0h0.2h0
	h0.2h0h0.2h0h0.2h0h0.2h0h0.2h0h0.2h0h0.2h0h0.2h0h0.2h0h0.2h0h0.2h0h0.2h0h0.2h0h0.2h0h0.2h0h0.2h0h0.2h0h0.2h0h0.2h0h0.2h0h0.2h0
	h0.2h0h0.2h0h0.2h0h0.2h0h0.2h0h0.2h0h0.2h0h0.2h0h0.2h0h0.2h0h0.2h0h0.2h0h0.2h0h0.2h0h0.2h0h0.2h0h0.2h0h0.2h0h0.2h0h0.2h0h0.2h0
	h0.2h0h0.2h0h0.2h0h0.2h0h0.2h0h0.2h0h0.2h0h0.2h0h0.2h0h0.2h0h0.2h0h0.2h0h0.2h0h0.2h0h0.2h0h0.2h0h0.2h0h0.2h0h0.2h0h0.2h0h0.2h0
	h0.2h0h0.2h0h0.2h0h0.2h0h0.2h0h0.2h0h0.2h0h0.2h0h0.2h0h0.2h0h0.2h0h0.2h0h0.2h0h0.2h0h0.2h0h0.2h0h0.2h0h0.2h0h0.2h0h0.2h0h0.2h0
	h0.2h0h0.2h0h0.2h0h0.2h0h0.2h0h0.2h0h0.2h0h0.2h0h0.2h0h0.2h0h0.2h0h0.2h0h0.2h0h0.2h0h0.2h0h0.2h0h0.2h0h0.2h0h0.2h0h0.2h0h0.2h0
	h0.2h0h0.2h0h0.2h0h0.2h0h0.2h0h0.2h0h0.2h0h0.2h0h0.2h0h0.2h0h0.2h0h0.2h0h0.2h0h0.2h0h0.2h0h0.2h0h0.2h0h0.2h0h0.2h0h0.2h0h0.2h0
	h0.2h0h0.2h0h0.2h0h0.2h0h0.2h0h0.2h0h0.2h0h0.2h0h0.2h0h0.2h0h0.2h0h0.2h0h0.2h0h0.2h0h0.2h0h0.2h0h0.2h0h0.2h0h0.2h0h0.2h0h0.2h0
	h0.2h0h0.2h0h0.2h0h0.2h0h0.2h0h0.2h0h0.2h0h0.2h0h0.2h0h0.2h0h0.2h0h0.2h0h0.2h0h0.2h0h0.2h0h0.2h0h0.2h0h0.2h0h0.2h0h0.2h0h0.2h0
	h0.2h0h0.2h0h0.2h0h0.2h0h0.2h0h0.2h0h0.2h0h0.2h0h0.2h0h0.2h0h0.2h0h0.2h0h0.2h0h0.2h0h0.2h0h0.2h0h0.2h0h0.2h0h0.2h0h0.2h0h0.2h0
	h0.2h0h0.2h0h0.2h0h0.2h0h0.2h0h0.2h0h0.2h0h0.2h0h0.2h0h0.2h0h0.2h0h0.2h0h0.2h0h0.2h0h0.2h0h0.2h0h0.2h0h0.2h0h0.2h0h0.2h0h0.2h0
	h0.2h0h0.2h0h0.2h0h0.2h0h0.2h0h0.2h0h0.2h0h0.2h0h0.2h0h0.2h0h0.2h0h0.2h0h0.2h0h0.2h0h0.2h0h0.2h0h0.2h0h0.2h0h0.2h0h0.2h0h0.2h0
	h0.2h0h0.2h0h0.2h0h0.2h0h0.2h0h0.2h0h0.2h0h0.2h0h0.2h0h0.2h0h0.2h0h0.2h0h0.2h0h0.2h0h0.2h0h0.2h0h0.2h0h0.2h0h0.2h0h0.2h0h0.2h0
	h0.2h0h0.2h0h0.2h0h0.2h0h0.2h0h0.2h0h0.2h0h0.2h0h0.2h0h0.2h0h0.2h0h0.2h0h0.2h0h0.2h0h0.2h0h0.2h0h0.2h0h0.2h0h0.2h0h0.2h0h0.2h0
	h0.2h0h0.2h0h0.2h0h0.2h0h0.2h0h0.2h0h0.2h0h0.2h0h0.2h0h0.2h0h0.2h0h0.2h0h0.2h0h0.2h0h0.2h0h0.2h0h0.2h0h0.2h0h0.2h0h0.2h0h0.2h0
	h0.2h0h0.2h0h0.2h0h0.2h0h0.2h0h0.2h0h0.2h0h0.2h0h0.2h0h0.2h0h0.2h0h0.2h0h0.2h0h0.2h0h0.2h0h0.2h0h0.2h0h0.2h0h0.2h0h0.2h0h0.2h0
	h0.2h0h0.2h0h0.2h0h0.2h0h0.2h0h0.2h0h0.2h0h0.2h0h0.2h0h0.2h0h0.2h0h0.2h0h0.2h0h0.2h0h0.2h0h0.2h0h0.2h0h0.2h0h0.2h0h0.2h0h0.2h0
	h0.2h0h0.2h0h0.2h0h0.2h0h0.2h0h0.2h0h0.2h0h0.2h0h0.2h0h0.2h0h0.2h0h0.2h0h0.2h0h0.2h0h0.2h0h0.2h0h0.2h0h0.2h0h0.2h0h0.2h0h0.2h0
	h0.2h0h0.2h0h0.2h0h0.2h0h0.2h0h0.2h0h0.2h0h0.2h0h0.2h0h0.2h0h0.2h0h0.2h0h0.2h0h0.2h0h0.2h0h0.2h0h0.2h0h0.2h0h0.2h0h0.2h0h0.2h0
	h0.2h0h0.2h0h0.2h0h0.2h0h0.2h0h0.2h0h0.2h0h0.2h0h0.2h0h0.2h0h0.2h0h0.2h0h0.2h0h0.2h0h0.2h0h0.2h0h0.2h0h0.2h0h0.2h0h0.2h0h0.2h0
	h0.2h0h0.2h0h0.2h0h0.2h0h0.2h0h0.2h0h0.2h0h0.2h0h0.2h0h0.2h0h0.2h0h0.2h0h0.2h0h0.2h0h0.2h0h0.2h0h0.2h0h0.2h0h0.2h0h0.2h0h0.2h0
	h0.2h0h0.2h0h0.2h0h0.2h0h0.2h0"/>
<polygon class="st3" points="112.8,96.3 104.2,95.1 98.4,101.5 96.9,93 89,89.5 96.6,85.4 97.5,76.8 103.8,82.8 112.2,81 
	108.5,88.8 "/>
<g>
	<g>
		<line class="st4" x1="89.8" y1="13" x2="95.8" y2="13"/>
		<line class="st5" x1="107.7" y1="13" x2="746" y2="13"/>
		<line class="st4" x1="752" y1="13" x2="758" y2="13"/>
	</g>
</g>
<g>
	<g>
		<line class="st6" x1="640.1" y1="71.9" x2="702.9" y2="33.9"/>
		<g>
			
				<rect x="637.9" y="57.9" transform="matrix(0.8556 -0.5176 0.5176 0.8556 55.1939 341.6838)" class="st7" width="4.3" height="27.9"/>
		</g>
		<g>
			<polygon class="st7" points="694.8,58.2 700.5,35.4 677.6,29.8 689.7,22.5 712.5,28.1 706.9,50.9 			"/>
		</g>
	</g>
</g>
</svg>
